<svg width="841.9" height="595.3" xmlns="http://www.w3.org/2000/svg" xml:space="preserve" version="1.1">
 <defs>
  <linearGradient y2="1.00162" x2="0.02865" y1="0.16026" x1="1.01494" id="SVGID_1_">
   <stop stop-color="#3A3A3A" offset="0"/>
   <stop stop-color="#D6D6D5" offset="1"/>
  </linearGradient>
  <linearGradient y2="1.2161" x2="0.03685" y1="-0.24441" x1="0.9945" id="SVGID_00000107576564049323370070000001101915320576396188_">
   <stop stop-color="#3A3A3A" offset="0"/>
   <stop stop-color="#D6D6D5" offset="1"/>
  </linearGradient>
  <linearGradient y2="1.27498" x2="0.03032" y1="0.00563" x1="1.00424" id="SVGID_00000039125963726537329020000007694954530090266505_">
   <stop stop-color="#3A3A3A" offset="0"/>
   <stop stop-color="#D6D6D5" offset="1"/>
  </linearGradient>
  <linearGradient y2="1.20863" x2="0.02328" y1="0.22315" x1="1.01677" id="SVGID_00000149369649206881983030000005999095443054222267_">
   <stop stop-color="#3A3A3A" offset="0"/>
   <stop stop-color="#D6D6D5" offset="1"/>
  </linearGradient>
 </defs>
 <g>
  <title>Layer 1</title>
  <rect id="svg_60" height="641.67109" width="993.34017" y="-17.6481" x="-102.38693" stroke="#000" fill="#111827"/>
  <polygon id="svg_1" fill="#F07F17" points="497.1000061035156,252.433500289917 527.2000122070312,222.33349418640137 497.1000061035156,192.33349418640137 497.1000061035156,149.73349571228027 454.6000061035156,149.73349571228027 424.6000061035156,119.73349571228027 394.5,149.73349571228027 352,149.73349571228027 352,192.33349418640137 321.8999938964844,222.33349418640137 352,252.433500289917 352,294.933500289917 394.5,294.933500289917 424.6000061035156,324.933500289917 454.6000061035156,294.933500289917 497.1000061035156,294.933500289917 "/>
  <path id="svg_8" fill="url(#SVGID_1_)" d="m560.4,291.73336c-14.4,21.7 -38.5,34.8 -62.6,44.7c-48,19.8 -98.9,30.2 -150,37.7c-25.9,3.8 -51.8,7.2 -78.1,4.7c-12,-1.1 -24.5,-2.5 -35.8,-7c-2.9,-1.2 -5.8,-2.5 -8.6,-3.9c-2.2,-1.1 -3,-1.9 -7.1,-3.8c1.1,6.1 4.2,11.9 8.7,16.1c5.2,4.9 12.3,7 19.1,8.5c18.2,4.2 37.1,4.4 55.8,3.7c63.7,-2.3 127,-14.9 186.7,-37.2c18.3,-6.8 35.9,-14.9 52,-26.1c6.5,-4.5 13.4,-9.2 18.4,-15.4c4.9,-5.9 7.5,-15.6 1.5,-22z"/>
  <path id="svg_9" fill="url(#SVGID_00000107576564049323370070000001101915320576396188_)" d="m621.9,361.4c-18.4,18.4 -44.7,26.4 -70.3,31.3c-50.9,9.8 -102.9,9.8 -154.5,7c-26.2,-1.4 -52.2,-3.3 -77.4,-11c-0.4,-0.1 -0.9,-0.3 -1.3,-0.4c-5.5,0.4 -11.1,0.6 -16.6,0.8c-5.1,0.2 -10.3,0.3 -15.5,0.3c2.6,1.6 5.4,3 8.2,4.3c17,7.7 35.5,11.7 53.9,14.8c62.9,10.5 127.4,10.7 190.4,0.9c19.3,-3 38.1,-7.4 56.1,-15.2c7.3,-3.1 14.9,-6.3 21.1,-11.4c6,-4.9 10.6,-13.9 5.9,-21.4z"/>
  <path id="svg_10" fill="url(#SVGID_00000039125963726537329020000007694954530090266505_)" d="m621.9,342.1c-18.4,18.4 -44.7,26.4 -70.3,31.3c-50.9,9.8 -102.9,9.8 -154.5,7c-3.2,-0.2 -6.4,-0.4 -9.6,-0.6c-17.1,3.1 -34.3,5.5 -51.6,7.1c4.1,0.8 8.3,1.6 12.4,2.2c62.9,10.5 127.4,10.7 190.4,0.9c19.3,-3 38.1,-7.4 56.1,-15.2c7.3,-3.1 14.9,-6.3 21.1,-11.4c6.1,-4.9 10.7,-13.8 6,-21.3z"/>
  <g id="svg_11">
   <path id="svg_12" fill="url(#SVGID_00000149369649206881983030000005999095443054222267_)" d="m621.9,322.8c-18.4,18.4 -44.7,26.4 -70.3,31.3c-31.2,6 -62.7,8.3 -94.3,8.6c-17.4,5.4 -35.1,10 -52.9,13.8c44.8,3.1 89.9,1.2 134.3,-5.7c19.3,-3 38.1,-7.4 56.1,-15.2c7.3,-3.1 14.9,-6.3 21.1,-11.4c6.1,-5 10.7,-14 6,-21.4z"/>
  </g>
  <g id="svg_13">
   <rect id="svg_14" fill="#ffffff" height="4.5" width="6" class="st2" y="464.2" x="134.9"/>
   <rect id="svg_15" fill="#ffffff" height="4.5" width="6" class="st2" y="464.2" x="126.9"/>
   <path id="svg_16" fill="#ffffff" d="m345.2,493.1l-4.3,0l0,0l-3.3,0l0,-39.4l-6.2,0l0,39.4l-3.8,0l0,0l-3.6,0l0,-19.4l-3.7,0l-14.3,0l0,19.4l-5.7,0l0,0l-3.6,0l0,-19.4l-3.7,0l-14.3,0l0,19.4l-5.7,0l0,0l-21.3,0l-3.3,0l0,-39.4l-6.4,0l0,39.4l-3.8,0l0,0l-21.3,0l-2.9,0l0,-5.1l0,-5.5l-33,0l0,-10.6l16.6,0l0,-3l-22.6,0l0,16.6l33,0l0,7.6l-39,0l0,0l-21.3,0l-4.5,0l0,-19.4l-18.1,0l0,22.4l22.6,0l0,0l21.2,0l0,0l48.1,0l0,0l21.2,0l0,0l13.3,0l21.3,0l0,0l11.8,0l3.4,0l12.2,0l0,0l11.8,0l3.4,0l12.2,0l0,0l13.3,0l0,0l10.5,0l0,-42.4l-6.2,0l0,39.4l0,0zm-208.1,0l-6,0l0,-16.3l6,0l0,16.3zm153.4,0l-6,0l0,-16.3l6,0l0,16.3zm27.5,0l-6,0l0,-16.3l6,0l0,16.3z" class="st2"/>
   <rect id="svg_17" fill="#ffffff" height="4.5" width="6" class="st2" y="464.2" x="381.6"/>
   <rect id="svg_18" fill="#ffffff" height="4.5" width="6" class="st2" y="464.2" x="373.6"/>
   <path id="svg_19" fill="#ffffff" d="m421.7,473.7l0,19.4l-6,0l0,0l-21.3,0l-4.5,0l0,-19.4l-18.1,0l0,22.4l22.6,0l0,0l21.2,0l0,0l12.1,0l3.4,0l8.6,0l0,-22.4l-3.7,0l-14.3,0zm-37.8,19.4l-6,0l0,-16.3l6,0l0,16.3zm49.9,0l-6,0l0,-16.3l6,0l0,16.3z" class="st2"/>
   <polygon id="svg_20" fill="#ffffff" points="507.9,493.1 503.6,493.1 487.4,493.1 487.4,471.9 493.2,471.9 493.2,485.8 499.2,485.8 499.2,468.9 481.4,468.9 481.4,493.1 475.3,493.1 475.3,493.1 454,493.1 451.3,493.1 451.3,453.7 445.1,453.7 445.1,496.1 454,496.1 454,496.1 475.2,496.1 475.2,496.1 503.6,496.1 514.1,496.1 514.1,453.7 507.9,453.7" class="st2"/>
   <rect id="svg_21" fill="#ffffff" height="42.4" width="6.2" class="st2" y="453.7" x="519.7"/>
   <rect id="svg_22" fill="#ffffff" height="4.5" width="6" class="st2" y="464.2" x="547.7"/>
   <rect id="svg_23" fill="#ffffff" height="4.5" width="6" class="st2" y="464.2" x="555.8"/>
   <rect id="svg_24" fill="#ffffff" height="4.5" width="6" class="st2" y="462.8" x="592.5"/>
   <path id="svg_25" fill="#ffffff" d="m620.4,493.1l-10.6,0l0,0l-3.3,0l0,-21.2l-6,0l0,21.2l-10.6,0l0,0l-21.3,0l-4.6,0l0,-19.4l-18.1,0l0,22.4l22.6,0l0,0l21.2,0l0,0l16.6,0l3.3,0l0,0l16.7,0l0,-24.2l-6.1,0l0,21.2l0.2,0zm-62.4,0l-6,0l0,-16.3l6,0l0,16.3z" class="st2"/>
   <rect id="svg_26" fill="#ffffff" height="4.5" width="6.1" class="st2" y="499.5" x="619.3"/>
   <rect id="svg_27" fill="#ffffff" height="4.5" width="6" class="st2" y="499.5" x="610.8"/>
   <rect id="svg_28" fill="#ffffff" height="4.5" width="6" class="st2" y="469.9" x="635.3"/>
   <rect id="svg_29" fill="#ffffff" height="4.5" width="6" class="st2" y="459.8" x="676.7"/>
   <polygon id="svg_30" fill="#ffffff" points="698.9,493.1 694.6,493.1 694.5,493.1 691.4,493.1 691.4,468.9 670.3,468.9 670.3,484 676.3,484 676.3,471.9 685.4,471.9 685.4,493.1 667,493.1 667,493.1 645.7,493.1 641.4,493.1 641.4,478 635.3,478 635.3,502.1 631.7,502.1 631.7,505.2 641.4,505.2 641.4,496.1 645.7,496.1 645.7,496.1 666.9,496.1 666.9,496.1 685.4,496.1 685.4,497.6 691.4,497.6 691.4,496.1 694.5,496.1 694.6,496.1 705.1,496.1 705.1,453.7 698.9,453.7" class="st2"/>
   <rect id="svg_31" fill="#ffffff" height="42.4" width="6.2" class="st2" y="453.7" x="710.6"/>
  </g>
  <g id="svg_32">
   <path id="svg_33" fill="#ffffff" d="m131.8,527.8l-6.7,0l0,-4.8l17.8,0l0,4.8l-6.1,0l0,23.4l-5,0l0,-23.4z" class="st2"/>
   <path id="svg_34" fill="#ffffff" d="m146.5,551.2l0,-28.2l17.8,0l0,16.4l-6.1,0l6.1,11.8l-4.7,0l-6.4,-11.8l-1.8,0l0,11.8l-4.9,0zm5,-23.4l0,7l8.1,0l0,-7l-8.1,0z" class="st2"/>
   <path id="svg_35" fill="#ffffff" d="m172.9,527.8l0,7l12.8,0l0,4.6l-12.8,0l0,7l12.8,0l0,4.8l-17.8,0l0,-28.2l17.8,0l0,4.8l-12.8,0l0,0z" class="st2"/>
   <path id="svg_36" fill="#ffffff" d="m189.3,539.3l0,-16.4l17.8,0l0,4.8l-12.8,0l0,7l12.8,0l0,16.4l-17.8,0l0,-4.8l13.1,0l0,-7l-13.1,0z" class="st2"/>
   <path id="svg_37" fill="#ffffff" d="m228.6,522.9l0,28.2l-17.8,0l0,-28.2l17.8,0zm-4.7,4.9l-8.1,0l0,18.6l8.1,0l0,-18.6z" class="st2"/>
   <path id="svg_38" fill="#ffffff" d="m232.2,551.2l0,-28.2l17.8,0l0,16.4l-6.1,0l6.1,11.8l-4.7,0l-6.4,-11.8l-1.8,0l0,11.8l-4.9,0zm5,-23.4l0,7l8.1,0l0,-7l-8.1,0z" class="st2"/>
   <path id="svg_39" fill="#ffffff" d="m258.6,527.8l0,7l12.8,0l0,4.6l-12.8,0l0,7l12.8,0l0,4.8l-17.8,0l0,-28.2l17.8,0l0,4.8l-12.8,0l0,0z" class="st2"/>
   <path id="svg_40" fill="#ffffff" d="m275,551.2l0,-28.2l17.8,0l0,16.4l-6.1,0l6.1,11.8l-4.7,0l-6.4,-11.8l-1.7,0l0,11.8l-5,0zm5,-23.4l0,7l8.1,0l0,-7l-8.1,0z" class="st2"/>
   <path id="svg_41" fill="#ffffff" d="m301.5,551.2l-5,0l0,-28.2l5,0l0,28.2z" class="st2"/>
   <path id="svg_42" fill="#ffffff" d="m310.1,527.8l0,7l12.8,0l0,4.6l-12.8,0l0,7l12.8,0l0,4.8l-17.8,0l0,-28.2l17.8,0l0,4.8l-12.8,0l0,0z" class="st2"/>
   <path id="svg_43" fill="#ffffff" d="m343.6,534.7l9.8,0l0,16.4l-17.8,0l0,-28.2l17.8,0l0,4.8l-12.8,0l0,18.6l8.1,0l0,-7l-5.2,0l0,-4.6l0.1,0z" class="st2"/>
   <path id="svg_44" fill="#ffffff" d="m362.1,527.8l0,7l12.8,0l0,4.6l-12.8,0l0,7l12.8,0l0,4.8l-17.8,0l0,-28.2l17.8,0l0,4.8l-12.8,0l0,0z" class="st2"/>
   <path id="svg_45" fill="#ffffff" d="m383.5,551.2l-5,0l0,-28.2l5,0l8.1,15.8l0,-15.8l4.7,0l0,28.2l-4.7,0l-8.1,-16.3l0,16.3z" class="st2"/>
   <path id="svg_46" fill="#ffffff" d="m404.9,527.8l0,7l12.8,0l0,4.6l-12.8,0l0,7l12.8,0l0,4.8l-17.7,0l0,-28.2l17.8,0l0,4.8l-12.9,0l0,0z" class="st2"/>
   <path id="svg_47" fill="#ffffff" d="m421.4,551.2l0,-28.2l17.8,0l0,16.4l-6.1,0l6.1,11.8l-4.7,0l-6.4,-11.8l-1.8,0l0,11.8l-4.9,0zm5,-23.4l0,7l8.1,0l0,-7l-8.1,0z" class="st2"/>
   <path id="svg_48" fill="#ffffff" d="m455.9,539.3l-8.1,0l0,11.8l-5,0l0,-28.2l17.8,0l0,28.2l-4.7,0l0,-11.8zm-8.1,-11.5l0,7l8.1,0l0,-7l-8.1,0z" class="st2"/>
   <path id="svg_49" fill="#ffffff" d="m469.2,546.3l12.8,0l0,4.8l-17.8,0l0,-28.2l5,0l0,23.4l0,0z" class="st2"/>
   <path id="svg_50" fill="#ffffff" d="m490.6,527.8l0,7l12.8,0l0,4.6l-12.8,0l0,7l12.8,0l0,4.8l-17.8,0l0,-28.2l17.8,0l0,4.8l-12.8,0l0,0z" class="st2"/>
   <path id="svg_51" fill="#ffffff" d="m516.3,551.2l0,-28.2l15.9,0l1.9,2.5l0,23.3l-1.9,2.5l-15.9,-0.1l0,0zm13.1,-23.4l-8.1,0l0,18.6l8.1,0l0,-18.6z" class="st2"/>
   <path id="svg_52" fill="#ffffff" d="m550.8,522.9l4.7,0l0,28.2l-17.8,0l0,-28.2l5,0l0,23.4l8.1,0l0,-23.4z" class="st2"/>
   <path id="svg_53" fill="#ffffff" d="m568.3,551.2l0,-28.2l17.8,0l0,16.4l-6.1,0l6.1,11.8l-4.7,0l-6.4,-11.8l-1.8,0l0,11.8l-4.9,0zm5,-23.4l0,7l8.1,0l0,-7l-8.1,0z" class="st2"/>
   <path id="svg_54" fill="#ffffff" d="m607.5,522.9l0,28.2l-17.8,0l0,-28.2l17.8,0zm-4.6,4.9l-8.1,0l0,18.6l8.1,0l0,-18.6z" class="st2"/>
   <path id="svg_55" fill="#ffffff" d="m622.4,537l0,14.1l-5,0l0,-14.1l-6.3,-14.1l5,0l4,9l4.1,-9l4.7,0l-6.5,14.1z" class="st2"/>
   <path id="svg_56" fill="#ffffff" d="m645.7,539.3l-8.1,0l0,11.8l-5,0l0,-28.2l17.8,0l0,28.2l-4.7,0l0,-11.8zm-8.1,-11.5l0,7l8.1,0l0,-7l-8.1,0z" class="st2"/>
   <path id="svg_57" fill="#ffffff" d="m667.1,522.9l4.7,0l0,28.2l-17.8,0l0,-28.2l5,0l0,23.4l8.1,0l0,-23.4z" class="st2"/>
   <path id="svg_58" fill="#ffffff" d="m680.4,551.2l-5,0l0,-28.2l5,0l5.1,15.5l5.3,-15.5l4.7,0l0,28.2l-4.7,0l0,-11.8l-3.6,11.8l-2.9,0l-3.8,-11.8l0,11.8l-0.1,0z" class="st2"/>
   <path id="svg_59" fill="#ffffff" d="m704,527.8l0,7l12.8,0l0,4.6l-12.8,0l0,7l12.8,0l0,4.8l-17.8,0l0,-28.2l17.8,0l0,4.8l-12.8,0l0,0z" class="st2"/>
  </g>
 </g>
</svg>