<svg version="1.1" id="Calque_1" xmlns="http://www.w3.org/2000/svg" x="0px" y="0px" viewBox="0 0 841.9 595.3" style="enable-background:new 0 0 841.9 595.3" xml:space="preserve"><style>.st2{fill:#333233}.st3{fill:none;stroke:#898586;stroke-width:3.750000e-02}.st4{fill:none;stroke:#333233;stroke-width:3.750000e-02}.st6{fill:url(#SVGID_00000140015434787416739590000011581263894895869375_)}.st7{fill:url(#SVGID_00000140001242484513105860000014187040569089640863_)}.st8{fill:url(#SVGID_00000110456025851385985930000016534125467503004820_)}</style><polygon points="497.1,229.1 527.2,199 497.1,169 497.1,126.4 454.6,126.4 424.6,96.4 394.5,126.4 352,126.4 352,169 321.9,199 352,229.1 352,271.6 394.5,271.6 424.6,301.6 454.6,271.6 497.1,271.6" style="fill:#F07F17"/><g style="opacity:0.7"><path class="st2" d="M293.5,321.3c0,0,1.2,0.2,1.8,0.8c0.5,0.6,0.5,1.6-2.1,3.1l-3.3,3.7l-1.1,4.8l-3.5,1.1c0,0-0.4-0.4-1.8-2.4 c-1.4-2-4-5.5-7.9-12c-1-1.6-2.1-3.4-3.3-5.4c-1.1-2-2.3-4.3-3.6-6.7c-0.7-1.2-1.4-2.5-2.1-3.8c-0.7-1.3-1.4-2.8-2.1-4.3 c-0.7-1.5-1.4-3-2.2-4.6c-0.8-1.6-1.6-3.3-2.3-5.1c-3-7.1-6.2-15.3-8.9-25.2c-0.3-1.2-0.7-2.5-1-3.7c-0.2-0.6-0.4-1.3-0.5-1.9 c-0.1-0.7-0.3-1.3-0.4-2c-0.6-2.7-1.2-5.4-1.8-8.2c-0.5-2.9-0.9-5.8-1.4-8.9c-0.1-0.8-0.2-1.5-0.4-2.3c-0.1-0.8-0.1-1.6-0.2-2.4 c-0.1-1.6-0.3-3.2-0.5-4.8c0,0-0.1-0.7-0.2-1.9c-0.2-1.2-0.3-3.1-0.4-5.5c-0.1-1.2-0.1-2.6-0.2-4c0-0.7-0.1-1.5-0.1-2.3 c0-0.8,0-1.6,0-2.5c0.1-3.5,0-7.5,0.5-11.9c0.6-8.8,2.3-19.4,5.6-31c3.4-11.6,8.5-24.1,15.9-36.4c0,0,0.2-0.4,0.6-1 c0.4-0.7,1-1.7,1.9-2.9c0.8-1.3,1.9-2.8,3.1-4.7c0.6-0.9,1.3-1.9,2.1-2.9c0.8-1,1.6-2.1,2.4-3.2c6.9-9.1,17.6-21.5,33.1-33.6 c7.7-6,16.5-12,26.4-17.4c9.9-5.4,20.8-10.2,32.5-14.1c11.7-3.9,24.2-6.8,37.1-8.4c12.9-1.6,26.3-1.9,39.6-0.6 c13.3,1.2,26.6,4.1,39.2,8.4c12.6,4.3,24.6,10,35.5,16.8c10.9,6.8,20.6,14.7,29.2,23c8.5,8.3,16,17,22.1,25.7 c12.5,17.2,20.6,33.8,25.9,46.6c0.7,1.6,1.3,3.2,1.8,4.7c0.6,1.5,1.1,2.9,1.6,4.3c1,2.7,2,5.2,2.6,7.4c1.4,4.4,2.3,7.6,2.8,9.4 c0,0-1.2-3.7-3.4-10.3c-1.1-3.3-2.7-7.2-4.4-11.7c-0.8-2.3-1.9-4.6-3-7.1c-1.1-2.5-2.2-5.1-3.5-7.8c-5.2-10.8-12.1-23.1-21-35.4 c-8.9-12.3-19.9-24.6-32.7-35.2c-1.5-1.4-3.2-2.6-4.9-3.9l-5-3.8c-1.7-1.2-3.4-2.3-5.2-3.5c-1.7-1.2-3.4-2.3-5.2-3.3 c-1.8-1-3.6-2.1-5.3-3.1l-1.3-0.8c-0.4-0.2-0.9-0.5-1.4-0.7c-0.9-0.5-1.8-0.9-2.7-1.4c-1.8-0.9-3.6-1.9-5.4-2.7 c-1.8-0.8-3.7-1.6-5.5-2.4c-0.9-0.4-1.8-0.8-2.7-1.2c-0.9-0.4-1.8-0.7-2.8-1c-1.8-0.7-3.7-1.4-5.5-2l-1.4-0.5l-1.4-0.4 c-0.9-0.3-1.8-0.6-2.7-0.8c-1.8-0.5-3.6-1.1-5.4-1.6c-1.8-0.4-3.6-0.9-5.4-1.3c-1.8-0.4-3.5-0.9-5.2-1.2 c-1.7-0.3-3.4-0.6-5.1-0.9c-0.8-0.2-1.7-0.3-2.5-0.5c-0.8-0.2-1.7-0.2-2.5-0.3c-1.6-0.2-3.3-0.4-4.8-0.6 c-0.8-0.1-1.6-0.2-2.4-0.3c-0.8-0.1-1.6-0.1-2.3-0.2c-1.5-0.1-3-0.2-4.5-0.3c-1.5-0.1-2.9-0.2-4.3-0.2c-2.8,0-5.4-0.1-7.9-0.1 c-2.5,0.1-4.8,0.2-7,0.2c-8.6,0.4-14.4,1.3-16.3,1.7c0,0,1-0.1,2.7-0.4c0.9-0.1,2-0.2,3.3-0.3c1.3-0.1,2.8-0.2,4.5-0.4 c0.8-0.1,1.7-0.1,2.7-0.2c0.9-0.1,1.9-0.1,2.9-0.1c2-0.1,4.3-0.1,6.6-0.2c4.7,0.1,10.1,0.1,15.9,0.7c11.6,1,25.2,3.4,39.3,8 c14.1,4.5,28.4,11.6,41.6,20.5c13.2,8.9,25.1,19.8,35,31.3c9.9,11.5,17.8,23.5,23.9,34.5c0.8,1.4,1.5,2.7,2.3,4.1 c0.8,1.3,1.4,2.7,2,4c1.3,2.6,2.5,5.1,3.7,7.5c1.1,2.4,2.1,4.8,3,7c0.9,2.2,1.8,4.2,2.6,6.2c1.4,3.9,2.6,7.2,3.5,9.8 c0.9,2.6,1.4,4.6,1.7,5.7c0,0-0.3-0.9-0.8-2.5c-0.5-1.6-1.5-3.9-2.6-6.9c-1.2-3-2.5-6.6-4.4-10.7c-0.9-2-1.9-4.2-2.9-6.5 c-0.5-1.2-1.1-2.3-1.7-3.5c-0.6-1.2-1.2-2.4-1.8-3.6c-2.4-5-5.5-10.2-8.6-15.7c-1.7-2.7-3.5-5.4-5.3-8.3 c-0.5-0.7-0.9-1.4-1.4-2.1c-0.5-0.7-1-1.4-1.5-2.1c-1-1.4-2-2.8-3.1-4.2c-8.4-11.3-18.7-22.5-30.6-32.3c-1.4-1.3-3-2.4-4.5-3.6 l-4.6-3.5c-1.5-1.1-3.2-2.2-4.8-3.2c-1.6-1.1-3.2-2.2-4.8-3.2c-1.7-1-3.3-1.9-5-2.9c-1.6-1-3.3-1.9-5-2.8 c-3.4-1.7-6.7-3.5-10.1-4.9c-13.6-6-27.3-9.8-39.7-11.8c-12.4-2-23.3-2.3-31.7-2.1c-2.1,0.1-4,0.2-5.8,0.3 c-0.9,0.1-1.7,0.1-2.5,0.2c-0.8,0.1-1.6,0.2-2.3,0.3c-2.8,0.4-5,0.7-6.2,1c0,0,0.8-0.1,2.4-0.2c1.6-0.1,3.9-0.3,6.9-0.5 c1.5,0,3.1-0.1,4.9-0.1c1.8,0,3.7-0.1,5.8,0c2.1,0.1,4.3,0.1,6.6,0.2c2.3,0.2,4.8,0.4,7.3,0.6c10.2,1,22.2,3.1,34.6,7 c12.4,3.9,25.3,9.7,37.3,17.2c12,7.5,23.2,16.6,32.7,26.6c9.5,9.9,17.3,20.5,23.6,30.3c6.4,9.8,10.8,19.2,14.3,26.6 c1.6,3.8,2.9,7.1,4,9.8c1.1,2.7,1.8,4.9,2.2,6.5c0,0-0.2-0.6-0.6-1.6c-0.2-0.5-0.4-1.2-0.7-1.9c-0.3-0.7-0.7-1.5-1.1-2.5 c-0.8-1.8-1.7-3.9-2.7-6.3c-0.5-1.2-1-2.4-1.6-3.6c-0.6-1.2-1.2-2.5-1.9-3.8c-0.6-1.3-1.3-2.6-1.9-3.9c-0.7-1.3-1.3-2.6-2-3.9 c-1.4-2.5-2.8-5-4.1-7.3c-0.3-0.6-0.7-1.1-1-1.7c-0.3-0.5-0.7-1.1-1-1.6c-0.7-1-1.3-2-1.9-2.9c-1.2-1.8-2.2-3.3-3-4.4 c0,0,2.4,4,4.9,8c1.2,2,2.2,4.1,3.1,5.7c0.8,1.6,1.4,2.6,1.4,2.6s-0.9-1.6-2.4-4.1c-0.4-0.6-0.7-1.3-1.1-2 c-0.4-0.7-0.8-1.4-1.3-2.2c-1-1.5-2-3.1-3-4.6c-1-1.6-2-3.2-3.1-4.6c-1-1.4-2-2.8-2.9-3.9c-1.7-2.3-2.8-3.8-2.8-3.8 s-0.2-0.2-0.4-0.6c-0.3-0.4-0.7-0.9-1.2-1.6c-1-1.3-2.3-3-3.7-4.7c-0.7-0.9-1.3-1.7-2-2.5c-0.7-0.8-1.3-1.5-1.8-2.1 c-1.1-1.2-1.8-2.1-1.8-2.1s0.5,0.6,1.3,1.5c0.8,1,2.1,2.3,3.5,4.1c1.4,1.8,3,3.9,4.7,6.1c0.9,1.1,1.7,2.3,2.5,3.6 c0.8,1.2,1.7,2.5,2.5,3.8c0.8,1.3,1.8,2.5,2.5,3.8c0.8,1.3,1.5,2.6,2.3,3.8c0.7,1.3,1.5,2.5,2.2,3.6c0.3,0.6,0.7,1.2,1,1.7 c0.3,0.6,0.6,1.1,0.9,1.7c2.2,4.3,3.8,7.5,4,8.3c0,0,2.7,4.6,0.5-0.1c-0.6-1.2-1.6-2.9-3-5.4c-0.7-1.3-1.5-2.7-2.5-4.4 c-1.1-1.6-2.2-3.4-3.6-5.5c-1.4-2.1-2.8-4.4-4.7-6.9c-0.9-1.2-1.9-2.5-2.9-3.9c-0.5-0.7-1-1.4-1.6-2.1c-0.5-0.7-1.2-1.4-1.8-2.1 c-1.2-1.4-2.5-2.9-3.8-4.5c-0.7-0.8-1.3-1.6-2.1-2.4c-0.7-0.8-1.5-1.6-2.3-2.4c-1.5-1.6-3.1-3.4-4.8-5.1 c-1.8-1.7-3.6-3.4-5.5-5.2c0,0-0.6-0.6-1.6-1.6c-1.2-1-2.9-2.5-5.1-4.6c-2.2-2.1-5.3-4.3-8.8-7.1c-0.4-0.3-0.9-0.7-1.4-1 c-0.5-0.3-1-0.7-1.5-1c-1-0.7-2-1.4-3.1-2.1c-1.1-0.7-2.2-1.5-3.3-2.3c-1.2-0.7-2.4-1.4-3.7-2.2c-10-6-23.2-12.4-39.7-16.9 c-8.3-2.2-17.3-3.9-27-4.8c-9.8-0.9-20.2-0.9-31.1,0.1c-21.9,2-45.8,8.5-69.1,21.1c-5.8,3.1-11.5,6.7-17.2,10.6l-1.1,0.7l-1,0.8 l-2.1,1.5c-1.4,1-2.8,2.1-4.2,3.1c-1.3,1.1-2.7,2.2-4,3.4c-1.4,1.1-2.7,2.2-4,3.5c-2.6,2.4-5.3,4.8-7.8,7.4 c-1.3,1.3-2.5,2.6-3.8,3.9c-1.2,1.4-2.4,2.7-3.6,4.1l-1.8,2.1c-0.6,0.7-1.2,1.4-1.7,2.2c-1.1,1.4-2.3,2.9-3.4,4.4 c-1.1,1.5-2.2,3-3.3,4.6c-1.1,1.5-2.2,3-3.2,4.7c-8.1,12.7-14.9,26.9-19,42.2c-2.2,7.6-3.5,15.6-4.5,23.7c-0.2,2-0.3,4.1-0.5,6.1 c-0.1,1-0.2,2-0.2,3.1c0,1,0,2.1,0,3.1c0,2.1-0.1,4.1-0.1,6.2c0.1,2.1,0.2,4.1,0.3,6.2c0.1,1,0.1,2.1,0.2,3.1l0.3,3.1 c0.2,2.1,0.5,4.2,0.7,6.3c0.4,2.1,0.7,4.2,1.1,6.2l0.5,3.1c0.2,1,0.5,2.1,0.7,3.1c0.5,2.1,1,4.1,1.5,6.2c0.2,1,0.6,2.1,0.9,3.1 l0.9,3.1l0.9,3.1c0.3,1,0.6,2.1,1,3.1c0.7,2,1.5,4.1,2.2,6.1c0.4,1,0.7,2,1.1,3.1l1.3,3c0.9,2,1.7,4,2.6,6c0.9,2,1.9,4,2.9,6 c1,2,1.9,4,3,5.9c1.1,1.9,2.2,3.9,3.3,5.8c1.1,1.9,2.1,3.9,3.4,5.8c1.2,1.9,2.4,3.8,3.6,5.7l1.8,2.9L293.5,321.3z"/><path class="st3" d="M285.7,338.2c0,0-1.1-1.6-3.1-4.6c-1-1.5-2.3-3.4-3.7-5.6c-0.8-1.1-1.5-2.3-2.2-3.6 c-0.8-1.3-1.6-2.7-2.5-4.1c-0.9-1.5-1.8-3-2.8-4.6c-0.9-1.7-1.8-3.4-2.8-5.2c-1-1.8-2-3.7-3-5.7c-1-2-1.9-4.1-3-6.2 c-4.1-8.6-8-18.7-11.4-29.9c-0.8-2.8-1.6-5.7-2.4-8.7c-0.6-3-1.3-6.1-2-9.2c-1.1-6.3-2.2-12.8-2.7-19.6c-1.1-13.5-0.6-28,2-42.7 c5.2-29.3,19.6-59,40.8-82.2c0,0,0.7-0.8,2.1-2.3c1.3-1.5,3.5-3.5,6.2-6.1c5.5-5.1,13.6-12.3,24.3-19.6 c10.7-7.3,24.1-14.7,39.5-20.6c1.9-0.8,3.9-1.4,5.8-2.1c2-0.7,4-1.4,6-2c4.1-1.2,8.2-2.5,12.4-3.4c8.4-2.2,17.2-3.6,26.1-4.5 c2.2-0.2,4.5-0.4,6.7-0.6c2.2-0.2,4.5-0.2,6.7-0.3l3.4-0.1c1.1,0,2.2,0,3.4,0c2.2,0,4.5,0.1,6.7,0.1c2.2,0.2,4.5,0.3,6.7,0.5 c1.1,0.1,2.2,0.1,3.3,0.3c1.1,0.1,2.2,0.3,3.3,0.4c2.2,0.3,4.4,0.5,6.6,0.9c2.2,0.4,4.3,0.8,6.5,1.2c2.2,0.3,4.2,0.9,6.3,1.4 c2.1,0.5,4.2,1,6.2,1.5c2,0.6,4.1,1.2,6.1,1.8c1,0.3,2,0.6,3,0.9c1,0.4,1.9,0.7,2.9,1.1c1.9,0.7,3.8,1.4,5.7,2.1 c1.8,0.8,3.7,1.6,5.5,2.4c3.6,1.5,7,3.3,10.3,4.9c13.2,6.8,23.8,14.6,31.6,21.2c1.9,1.7,3.8,3.2,5.4,4.7c1.6,1.5,3,2.9,4.3,4.2 c1.3,1.3,2.4,2.3,3.4,3.3c0.9,1,1.7,1.9,2.3,2.5c0,0,0.8,0.9,2.4,2.5c0.8,0.8,1.7,1.8,2.8,3c1,1.2,2.2,2.6,3.5,4.2 c1.3,1.6,2.7,3.2,4.2,5.1c1.4,1.9,2.9,4,4.5,6.2c0.8,1.1,1.6,2.2,2.4,3.4c0.8,1.2,1.6,2.4,2.4,3.6c0.8,1.2,1.6,2.5,2.5,3.8 c0.4,0.6,0.8,1.3,1.3,1.9c0.4,0.7,0.8,1.3,1.2,2c1.6,2.7,3.2,5.5,4.8,8.4c1.5,2.9,3,5.9,4.5,8.9c1.6,3,2.9,6.2,4.3,9.3l2.1,4.7 c0.7,1.6,1.2,3.2,1.9,4.8c1.2,3.2,2.4,6.4,3.6,9.5c1,3.2,2,6.3,3,9.4c0.5,1.5,1,3,1.4,4.6c0.4,1.5,0.8,3,1.2,4.5 c0.8,3,1.5,5.8,2.3,8.6"/><path class="st4" d="M410.3,45.5c-1.4,0.1-3.3,0.2-5.7,0.5c-1.2,0.2-2.5,0.3-3.9,0.5c-1.4,0.2-3,0.4-4.6,0.7 c-1.6,0.3-3.4,0.6-5.2,1c-0.9,0.2-1.8,0.3-2.8,0.5c-0.9,0.2-1.9,0.5-2.9,0.7c-2,0.5-4,1-6.1,1.5c-2.1,0.6-4.3,1.2-6.5,1.9 c-8.9,2.7-18.6,6.3-28.2,11c-9.7,4.7-19.3,10.4-28.3,16.8c-18.1,12.6-32.8,28.5-42.1,41.4c-2.4,3.2-4.3,6.3-6.1,8.9 c-0.9,1.3-1.7,2.6-2.4,3.8c-0.7,1.2-1.3,2.3-1.9,3.3c-1.1,2-2.1,3.5-2.6,4.6c-0.6,1.1-0.8,1.7-0.8,1.7c-0.9,1.9-1.9,3.8-2.9,5.8 c-0.9,2-1.8,4.1-2.7,6.3c-0.4,1.1-1,2.2-1.4,3.3c-0.4,1.1-0.8,2.3-1.2,3.4c-0.8,2.3-1.8,4.7-2.4,7.2c-3.1,9.8-5.2,20.7-6.2,32 c-0.1,1.4-0.3,2.8-0.4,4.3c-0.1,1.4-0.1,2.9-0.2,4.3c0,1.4-0.1,2.9-0.1,4.3l-0.1,2.2l0.1,2.2c0.1,2.9,0.2,5.8,0.3,8.7 c0.3,2.9,0.6,5.7,0.8,8.6c0.1,1.4,0.3,2.9,0.6,4.3c0.2,1.4,0.4,2.8,0.7,4.2c0.2,1.4,0.4,2.8,0.7,4.2c0.3,1.4,0.6,2.8,0.9,4.1 c0.3,1.4,0.6,2.7,0.9,4.1c0.3,1.4,0.6,2.7,1,4c0.8,2.7,1.5,5.3,2.2,7.9c6.4,20.6,15.4,37.9,22.6,49.8c1.8,3,3.4,5.7,4.9,8 c1.5,2.3,2.9,4.2,4,5.8c2.2,3.2,3.4,5,3.4,5"/><path class="st4" d="M416,49.9c0,0,0.2,0,0.5,0c0.4,0,0.9-0.1,1.6-0.1c1.4,0,3.5-0.1,6.1-0.2c0.7,0,1.4,0,2.1-0.1 c0.7,0,1.5,0,2.3,0c1.6,0,3.3,0.1,5.2,0.1c1.9,0,3.8,0.2,5.9,0.3c2.1,0.2,4.3,0.3,6.6,0.6c9.2,1,19.9,3,31.2,6.4 c11.3,3.4,23.2,8.5,34.6,15.1c11.4,6.6,22.2,14.7,31.6,23.7c1.2,1.1,2.3,2.3,3.5,3.4c1.2,1.1,2.3,2.2,3.4,3.4 c2.2,2.4,4.3,4.7,6.4,7c2,2.4,3.9,4.8,5.9,7.2c1,1.2,1.8,2.4,2.7,3.6c0.9,1.2,1.7,2.4,2.6,3.6c0.8,1.2,1.7,2.3,2.5,3.5 c1.5,2.4,3,4.7,4.5,7c0.7,1.1,1.5,2.2,2.1,3.4c1.3,2.3,2.6,4.5,3.8,6.6c0.6,1.1,1.2,2.1,1.8,3.1c0.5,1.1,1,2.1,1.5,3.1 c4.2,8,6.9,14.8,9,19.5"/><path class="st3" d="M366.3,67.6c0,0,0.8-0.3,2.2-0.8c0.7-0.2,1.6-0.6,2.7-0.9c1.1-0.4,2.3-0.8,3.7-1.2c1.4-0.4,2.9-0.8,4.6-1.3 c0.8-0.2,1.7-0.5,2.6-0.7c0.9-0.2,1.9-0.4,2.9-0.7c2-0.4,4.1-1,6.3-1.4c2.2-0.4,4.6-0.8,7-1.3c9.8-1.6,21.5-2.6,34.1-2.2 c12.6,0.4,26,2.3,39.1,6c13.1,3.7,25.7,9.2,37,15.8c11.3,6.6,21.1,14.3,29.1,21.7c2,1.9,3.9,3.8,5.7,5.6c1.8,1.8,3.4,3.7,5,5.4 c0.8,0.9,1.6,1.7,2.3,2.5c0.7,0.8,1.4,1.7,2.1,2.5c1.3,1.6,2.6,3.2,3.7,4.6c1.2,1.4,2.1,2.8,3,4.1c0.9,1.3,1.7,2.4,2.4,3.4 c0.7,1,1.3,1.9,1.9,2.6c0.5,0.7,0.9,1.4,1.2,1.9"/></g><linearGradient id="SVGID_1_" gradientUnits="userSpaceOnUse" x1="569.0422" y1="293.4118" x2="228.1035" y2="208.427" gradientTransform="matrix(1 0 0 -1 0 598)"><stop offset="0" style="stop-color:#3A3A3A"/><stop offset="1" style="stop-color:#D6D6D5"/></linearGradient><path d="M560.4,288.4c-14.4,21.7-38.5,34.8-62.6,44.7c-48,19.8-98.9,30.2-150,37.7c-25.9,3.8-51.8,7.2-78.1,4.7 c-12-1.1-24.5-2.5-35.8-7c-2.9-1.2-5.8-2.5-8.6-3.9c-2.2-1.1-3-1.9-7.1-3.8c1.1,6.1,4.2,11.9,8.7,16.1c5.2,4.9,12.3,7,19.1,8.5 c18.2,4.2,37.1,4.4,55.8,3.7c63.7-2.3,127-14.9,186.7-37.2c18.3-6.8,35.9-14.9,52-26.1c6.5-4.5,13.4-9.2,18.4-15.4 C563.8,304.5,566.4,294.8,560.4,288.4z" style="fill:url(#SVGID_1_)"/><linearGradient id="SVGID_00000107576564049323370070000001101915320576396188_" gradientUnits="userSpaceOnUse" x1="621.979" y1="250.0837" x2="298.7372" y2="169.5103" gradientTransform="matrix(1 0 0 -1 0 598)"><stop offset="0" style="stop-color:#3A3A3A"/><stop offset="1" style="stop-color:#D6D6D5"/></linearGradient><path style="fill:url(#SVGID_00000107576564049323370070000001101915320576396188_)" d="M621.9,361.4 c-18.4,18.4-44.7,26.4-70.3,31.3c-50.9,9.8-102.9,9.8-154.5,7c-26.2-1.4-52.2-3.3-77.4-11c-0.4-0.1-0.9-0.3-1.3-0.4 c-5.5,0.4-11.1,0.6-16.6,0.8c-5.1,0.2-10.3,0.3-15.5,0.3c2.6,1.6,5.4,3,8.2,4.3c17,7.7,35.5,11.7,53.9,14.8 c62.9,10.5,127.4,10.7,190.4,0.9c19.3-3,38.1-7.4,56.1-15.2c7.3-3.1,14.9-6.3,21.1-11.4C622,377.9,626.6,368.9,621.9,361.4z"/><linearGradient id="SVGID_00000039125963726537329020000007694954530090266505_" gradientUnits="userSpaceOnUse" x1="625.055" y1="255.5899" x2="344.6313" y2="185.6895" gradientTransform="matrix(1 0 0 -1 0 598)"><stop offset="0" style="stop-color:#3A3A3A"/><stop offset="1" style="stop-color:#D6D6D5"/></linearGradient><path style="fill:url(#SVGID_00000039125963726537329020000007694954530090266505_)" d="M621.9,342.1 c-18.4,18.4-44.7,26.4-70.3,31.3c-50.9,9.8-102.9,9.8-154.5,7c-3.2-0.2-6.4-0.4-9.6-0.6c-17.1,3.1-34.3,5.5-51.6,7.1 c4.1,0.8,8.3,1.6,12.4,2.2c62.9,10.5,127.4,10.7,190.4,0.9c19.3-3,38.1-7.4,56.1-15.2c7.3-3.1,14.9-6.3,21.1-11.4 C622,358.5,626.6,349.6,621.9,342.1z"/><g><linearGradient id="SVGID_00000149369649206881983030000005999095443054222267_" gradientUnits="userSpaceOnUse" x1="627.5126" y1="262.8954" x2="409.5092" y2="208.5544" gradientTransform="matrix(1 0 0 -1 0 598)"><stop offset="0" style="stop-color:#3A3A3A"/><stop offset="1" style="stop-color:#D6D6D5"/></linearGradient><path style="fill:url(#SVGID_00000149369649206881983030000005999095443054222267_)" d="M621.9,322.8 c-18.4,18.4-44.7,26.4-70.3,31.3c-31.2,6-62.7,8.3-94.3,8.6c-17.4,5.4-35.1,10-52.9,13.8c44.8,3.1,89.9,1.2,134.3-5.7 c19.3-3,38.1-7.4,56.1-15.2c7.3-3.1,14.9-6.3,21.1-11.4C622,339.2,626.6,330.2,621.9,322.8z"/></g><g><rect x="134.9" y="464.2" class="st2" width="6" height="4.5"/><rect x="126.9" y="464.2" class="st2" width="6" height="4.5"/><path class="st2" d="M345.2,493.1h-4.3h0h-3.3v-39.4h-6.2v39.4h-3.8h0H324v-19.4h-3.7h-14.3v19.4h-5.7h0h-3.6v-19.4h-3.7h-14.3 v19.4h-5.7v0l-21.3,0h-3.3v-39.4H242v39.4h-3.8v0l-21.3,0H214V488v-5.5h-33v-10.6h16.6v-3H175v16.6h33v7.6h-39v0l-21.3,0h-4.5 v-19.4h-18.1v22.4h22.6l0,0l21.2,0v0H217l0,0l21.2,0v0h13.3l21.3,0v0h11.8h3.4h12.2h0H312h3.4h12.2h0h13.3h0h10.5v-42.4h-6.2 L345.2,493.1L345.2,493.1z M137.1,493.1h-6v-16.3h6V493.1z M290.5,493.1h-6v-16.3h6V493.1z M318,493.1h-6v-16.3h6V493.1z"/><rect x="381.6" y="464.2" class="st2" width="6" height="4.5"/><rect x="373.6" y="464.2" class="st2" width="6" height="4.5"/><path class="st2" d="M421.7,473.7v19.4h-6v0l-21.3,0h-4.5v-19.4h-18.1v22.4h22.6l0,0l21.2,0v0h12.1h3.4h8.6v-22.4H436H421.7z M383.9,493.1h-6v-16.3h6V493.1z M433.8,493.1h-6v-16.3h6V493.1z"/><polygon class="st2" points="507.9,493.1 503.6,493.1 487.4,493.1 487.4,471.9 493.2,471.9 493.2,485.8 499.2,485.8 499.2,468.9 481.4,468.9 481.4,493.1 475.3,493.1 475.3,493.1 454,493.1 451.3,493.1 451.3,453.7 445.1,453.7 445.1,496.1 454,496.1 454,496.1 475.2,496.1 475.2,496.1 503.6,496.1 514.1,496.1 514.1,453.7 507.9,453.7"/><rect x="519.7" y="453.7" class="st2" width="6.2" height="42.4"/><rect x="547.7" y="464.2" class="st2" width="6" height="4.5"/><rect x="555.8" y="464.2" class="st2" width="6" height="4.5"/><rect x="592.5" y="462.8" class="st2" width="6" height="4.5"/><path class="st2" d="M620.4,493.1h-10.6h0h-3.3v-21.2h-6v21.2h-10.6v0l-21.3,0H564v-19.4h-18.1v22.4h22.6l0,0l21.2,0v0h16.6h3.3h0 h16.7v-24.2h-6.1V493.1z M558,493.1h-6v-16.3h6V493.1z"/><rect x="619.3" y="499.5" class="st2" width="6.1" height="4.5"/><rect x="610.8" y="499.5" class="st2" width="6" height="4.5"/><rect x="635.3" y="469.9" class="st2" width="6" height="4.5"/><rect x="676.7" y="459.8" class="st2" width="6" height="4.5"/><polygon class="st2" points="698.9,493.1 694.6,493.1 694.5,493.1 691.4,493.1 691.4,468.9 670.3,468.9 670.3,484 676.3,484 676.3,471.9 685.4,471.9 685.4,493.1 667,493.1 667,493.1 645.7,493.1 641.4,493.1 641.4,478 635.3,478 635.3,502.1 631.7,502.1 631.7,505.2 641.4,505.2 641.4,496.1 645.7,496.1 645.7,496.1 666.9,496.1 666.9,496.1 685.4,496.1 685.4,497.6 691.4,497.6 691.4,496.1 694.5,496.1 694.6,496.1 705.1,496.1 705.1,453.7 698.9,453.7"/><rect x="710.6" y="453.7" class="st2" width="6.2" height="42.4"/></g><g><path class="st2" d="M131.8,527.8h-6.7v-4.8h17.8v4.8h-6.1v23.4h-5V527.8z"/><path class="st2" d="M146.5,551.2v-28.2h17.8v16.4h-6.1l6.1,11.8h-4.7l-6.4-11.8h-1.8v11.8H146.5z M151.5,527.8v7h8.1v-7H151.5z"/><path class="st2" d="M172.9,527.8v7h12.8v4.6h-12.8v7h12.8v4.8h-17.8v-28.2h17.8v4.8L172.9,527.8L172.9,527.8z"/><path class="st2" d="M189.3,539.3v-16.4h17.8v4.8h-12.8v7h12.8v16.4h-17.8v-4.8h13.1v-7H189.3z"/><path class="st2" d="M228.6,522.9v28.2h-17.8v-28.2H228.6z M223.9,527.8h-8.1v18.6h8.1V527.8z"/><path class="st2" d="M232.2,551.2v-28.2H250v16.4h-6.1l6.1,11.8h-4.7l-6.4-11.8h-1.8v11.8H232.2z M237.2,527.8v7h8.1v-7H237.2z"/><path class="st2" d="M258.6,527.8v7h12.8v4.6h-12.8v7h12.8v4.8h-17.8v-28.2h17.8v4.8L258.6,527.8L258.6,527.8z"/><path class="st2" d="M275,551.2v-28.2h17.8v16.4h-6.1l6.1,11.8h-4.7l-6.4-11.8H280v11.8H275z M280,527.8v7h8.1v-7H280z"/><path class="st2" d="M301.5,551.2h-5v-28.2h5V551.2z"/><path class="st2" d="M310.1,527.8v7h12.8v4.6h-12.8v7h12.8v4.8h-17.8v-28.2h17.8v4.8L310.1,527.8L310.1,527.8z"/><path class="st2" d="M343.6,534.7h9.8v16.4h-17.8v-28.2h17.8v4.8h-12.8v18.6h8.1v-7h-5.2V534.7z"/><path class="st2" d="M362.1,527.8v7h12.8v4.6h-12.8v7h12.8v4.8h-17.8v-28.2h17.8v4.8L362.1,527.8L362.1,527.8z"/><path class="st2" d="M383.5,551.2h-5v-28.2h5l8.1,15.8v-15.8h4.7v28.2h-4.7l-8.1-16.3V551.2z"/><path class="st2" d="M404.9,527.8v7h12.8v4.6h-12.8v7h12.8v4.8H400v-28.2h17.8v4.8L404.9,527.8L404.9,527.8z"/><path class="st2" d="M421.4,551.2v-28.2h17.8v16.4h-6.1l6.1,11.8h-4.7l-6.4-11.8h-1.8v11.8H421.4z M426.4,527.8v7h8.1v-7H426.4z"/><path class="st2" d="M455.9,539.3h-8.1v11.8h-5v-28.2h17.8v28.2h-4.7V539.3z M447.8,527.8v7h8.1v-7H447.8z"/><path class="st2" d="M469.2,546.3H482v4.8h-17.8v-28.2h5L469.2,546.3L469.2,546.3z"/><path class="st2" d="M490.6,527.8v7h12.8v4.6h-12.8v7h12.8v4.8h-17.8v-28.2h17.8v4.8L490.6,527.8L490.6,527.8z"/><path class="st2" d="M516.3,551.2v-28.2h15.9l1.9,2.5v23.3l-1.9,2.5L516.3,551.2L516.3,551.2z M529.4,527.8h-8.1v18.6h8.1V527.8z"/><path class="st2" d="M550.8,522.9h4.7v28.2h-17.8v-28.2h5v23.4h8.1V522.9z"/><path class="st2" d="M568.3,551.2v-28.2h17.8v16.4H580l6.1,11.8h-4.7l-6.4-11.8h-1.8v11.8H568.3z M573.3,527.8v7h8.1v-7H573.3z"/><path class="st2" d="M607.5,522.9v28.2h-17.8v-28.2H607.5z M602.9,527.8h-8.1v18.6h8.1V527.8z"/><path class="st2" d="M622.4,537v14.1h-5V537l-6.3-14.1h5l4,9l4.1-9h4.7L622.4,537z"/><path class="st2" d="M645.7,539.3h-8.1v11.8h-5v-28.2h17.8v28.2h-4.7V539.3z M637.6,527.8v7h8.1v-7H637.6z"/><path class="st2" d="M667.1,522.9h4.7v28.2H654v-28.2h5v23.4h8.1V522.9z"/><path class="st2" d="M680.4,551.2h-5v-28.2h5l5.1,15.5l5.3-15.5h4.7v28.2h-4.7v-11.8l-3.6,11.8h-2.9l-3.8-11.8V551.2z"/><path class="st2" d="M704,527.8v7h12.8v4.6H704v7h12.8v4.8H699v-28.2h17.8v4.8L704,527.8L704,527.8z"/></g></svg>